<svg width="430" height="472" viewBox="0 0 430 472" fill="none" xmlns="http://www.w3.org/2000/svg">
<path opacity="0.18" d="M234.018 472C303.279 472 359.426 461.899 359.426 449.439C359.426 436.979 303.279 426.878 234.018 426.878C164.758 426.878 108.611 436.979 108.611 449.439C108.611 461.899 164.758 472 234.018 472Z" fill="#00C894"/>
<path opacity="0.18" d="M389.514 209.599C390.187 184.158 379.069 160.061 368.071 137.105C355.284 110.428 341.656 82.8988 318.484 64.4302C290.425 42.0134 251.764 36.2772 216.261 41.7254C180.758 47.1736 147.62 62.6781 115.706 79.1667C96.8563 88.911 78.1142 99.1234 61.3772 112.168C50.9555 120.292 41.0982 129.868 36.1636 142.169C31.8532 152.837 31.6251 164.646 31.457 176.142L29.6801 296.638C29.584 303.19 29.512 309.935 31.8172 316.067C34.9269 324.311 41.8666 330.407 48.5542 336.143C62.1216 347.784 76.6974 359.904 94.383 362.544C113.017 365.328 131.531 357.024 150.369 356.544C173.001 356.004 194.145 366.696 215.828 373.225C242.981 381.366 271.655 383.083 299.586 378.241C319.54 374.749 339.615 367.44 353.711 352.932C361.827 344.532 367.59 334.199 372.165 323.483C378.466 308.732 382.673 293.173 384.664 277.257C386.056 266.169 391.579 254.457 391.964 243.572C392.372 232.484 389.202 221.144 389.514 209.599Z" fill="#00C894"/>
<path d="M187.949 247.616C183.58 243.112 178.62 239.221 173.205 236.048C171.197 234.736 168.948 233.835 166.59 233.396C164.78 233.159 162.94 233.403 161.255 234.105C159.571 234.807 158.101 235.941 156.996 237.393C155.891 238.845 155.189 240.563 154.962 242.373C154.734 244.182 154.989 246.02 155.7 247.7C157.045 250.358 158.999 252.66 161.403 254.421C169.251 260.948 178.048 266.241 187.493 270.117C189.17 270.917 190.991 271.37 192.848 271.449C195.657 271.449 198.191 269.781 200.364 267.993C206.571 262.857 211.17 255.993 215.3 249.128C218.47 243.92 221.519 238.556 223.188 232.688C224.137 229.352 224.629 225.908 225.241 222.5C225.854 219.091 226.526 215.959 227.343 212.719C228.039 209.971 230.464 205.423 230.236 202.651C229.696 196.327 221.051 203.179 218.734 204.835C209.605 211.568 201.983 220.131 196.354 229.976C193.039 235.598 190.227 241.501 187.949 247.616Z" fill="#00C894"/>
<path d="M187.949 247.616C183.58 243.112 178.62 239.221 173.205 236.048C171.197 234.736 168.948 233.835 166.59 233.396C164.78 233.159 162.94 233.403 161.255 234.105C159.571 234.807 158.101 235.941 156.996 237.393C155.891 238.845 155.189 240.563 154.962 242.373C154.734 244.182 154.989 246.02 155.7 247.7C157.045 250.358 158.999 252.66 161.403 254.421C169.251 260.948 178.048 266.241 187.493 270.117C189.17 270.917 190.991 271.37 192.848 271.449C195.657 271.449 198.191 269.781 200.364 267.993C206.571 262.857 211.17 255.993 215.3 249.128C218.47 243.92 221.519 238.556 223.188 232.688C224.137 229.352 224.629 225.908 225.241 222.5C225.854 219.091 226.526 215.959 227.343 212.719C228.039 209.971 230.464 205.423 230.236 202.651C229.696 196.327 221.051 203.179 218.734 204.835C209.605 211.568 201.983 220.131 196.354 229.976C193.039 235.598 190.227 241.501 187.949 247.616Z" fill="url(#paint0_linear)"/>
<path d="M159.626 232.448C158.246 230.238 156.722 228.121 155.064 226.112C154.836 225.824 154.523 225.512 154.151 225.584C153.779 225.656 153.587 226.148 153.371 226.508C152.494 227.96 150.213 227.432 148.892 226.364C147.572 225.296 146.371 223.784 144.666 223.688C143.763 223.735 142.905 224.102 142.246 224.721C141.586 225.34 141.168 226.173 141.064 227.072C140.904 228.89 141.275 230.716 142.133 232.328C142.79 233.868 143.539 235.367 144.378 236.816C145.432 238.74 146.822 240.46 148.484 241.892C150.119 243.161 151.994 244.088 153.995 244.616C155.932 245.247 157.996 245.383 159.998 245.012C160.995 244.819 161.932 244.392 162.732 243.766C163.531 243.14 164.17 242.333 164.597 241.412C166.29 237.272 161.415 235.388 159.626 232.448Z" fill="#F3C091"/>
<path d="M206.307 424.754C206.262 425.418 206.351 426.083 206.571 426.71C207.232 428.222 209.285 428.631 210.846 428.114C211.624 427.863 212.339 427.448 212.944 426.897C213.549 426.347 214.029 425.673 214.352 424.922C214.868 423.482 215.041 421.941 214.856 420.422C214.756 418.959 214.559 417.504 214.268 416.066C214.222 415.545 214.068 415.038 213.816 414.58C213.564 414.121 213.219 413.72 212.803 413.402C210.894 412.322 207.316 414.674 206.595 416.522C205.683 418.814 206.331 422.318 206.307 424.754Z" fill="#FFCD90"/>
<path d="M212.995 424.598C212.432 425.138 211.798 425.598 211.11 425.966C210.186 426.307 209.193 426.418 208.216 426.29C207.428 426.096 206.604 426.096 205.815 426.29C205.368 426.537 204.962 426.853 204.614 427.226C203.776 427.915 202.871 428.518 201.913 429.027L197.927 431.223C196.735 431.84 195.619 432.593 194.601 433.467C193.989 434.043 193.46 434.667 192.848 435.303C192.55 435.545 192.301 435.843 192.116 436.179C192.005 436.499 191.991 436.844 192.074 437.173C192.157 437.501 192.334 437.798 192.584 438.027C193.1 438.467 193.727 438.757 194.397 438.867C195.183 439.051 195.991 439.127 196.798 439.095C197.951 439.015 199.098 438.862 200.232 438.639C202.786 438.332 205.317 437.855 207.808 437.211C210.305 436.455 212.743 435.531 215.18 434.607C216.06 434.349 216.861 433.875 217.509 433.227C217.908 432.595 218.157 431.88 218.236 431.138C218.315 430.395 218.222 429.644 217.966 428.943C217.727 427.932 217.422 426.937 217.053 425.966C216.693 425.018 216.117 423.974 215.12 423.794C214.777 423.763 214.431 423.801 214.103 423.907C213.775 424.012 213.472 424.182 213.211 424.406L212.995 424.598Z" fill="#2E2E3F"/>
<path d="M190.363 350.04C192.228 369.313 195.499 388.424 200.148 407.222C200.868 410.126 201.673 413.126 203.546 415.466C205.419 417.806 208.697 419.282 211.494 418.202C212.631 417.664 213.611 416.845 214.343 415.822C215.074 414.8 215.532 413.607 215.672 412.358C215.94 409.861 215.81 407.338 215.288 404.882C212.347 384.661 214.003 364.08 216.765 343.812C217.502 337.244 218.82 330.754 220.703 324.419C222.036 320.231 223.837 316.115 224.125 311.723C224.953 298.834 212.202 289.366 200.004 292.126C188.706 294.682 189.594 313.475 189.27 322.343C189.021 331.589 189.386 340.842 190.363 350.04Z" fill="#2E2E3F"/>
<path d="M190.363 350.04C192.228 369.313 195.499 388.424 200.148 407.222C200.868 410.126 201.673 413.126 203.546 415.466C205.419 417.806 208.697 419.282 211.494 418.202C212.631 417.664 213.611 416.845 214.343 415.822C215.074 414.8 215.532 413.607 215.672 412.358C215.94 409.861 215.81 407.338 215.288 404.882C212.347 384.661 214.003 364.08 216.765 343.812C217.502 337.244 218.82 330.754 220.703 324.419C222.036 320.231 223.837 316.115 224.125 311.723C224.953 298.834 212.202 289.366 200.004 292.126C188.706 294.682 189.594 313.475 189.27 322.343C189.021 331.589 189.386 340.842 190.363 350.04Z" fill="url(#paint1_linear)"/>
<path d="M260.481 434.991C260.723 435.608 261.086 436.171 261.549 436.647C262.75 437.727 264.815 437.223 266.028 436.107C266.62 435.541 267.087 434.859 267.399 434.102C267.711 433.346 267.862 432.533 267.841 431.715C267.693 430.183 267.187 428.707 266.364 427.406C265.648 426.121 264.846 424.886 263.963 423.71C263.707 423.263 263.362 422.873 262.949 422.565C262.536 422.257 262.063 422.039 261.561 421.922C259.364 421.754 257.119 425.402 257.263 427.382C257.359 429.879 259.436 432.771 260.481 434.991Z" fill="#FFCD90"/>
<path d="M268.297 432.603C267.757 432.303 267.096 432.351 266.232 433.095C265.649 433.725 265.023 434.315 264.359 434.859C263.218 435.591 261.729 435.543 260.481 436.059C259.736 436.441 259.049 436.926 258.44 437.499C256.101 439.336 254.003 441.461 252.196 443.823C250.996 445.515 248.198 448.311 250.203 450.423C251.176 451.443 252.832 451.371 254.201 451.011C255.61 450.605 256.986 450.096 258.319 449.487C261.441 448.167 264.551 446.847 267.576 445.335C268.748 444.837 269.81 444.111 270.698 443.199C271.378 442.363 271.833 441.368 272.02 440.308C272.207 439.247 272.12 438.156 271.767 437.139C271.41 436.531 270.983 435.967 270.494 435.459C269.762 434.559 269.185 433.107 268.297 432.603Z" fill="#2E2E3F"/>
<path d="M212.695 301.366C210.954 307.366 212.455 313.751 213.775 319.847C217.26 335.915 219.536 352.221 220.583 368.628C220.647 371.197 220.985 373.752 221.591 376.249C222.346 378.589 223.365 380.836 224.629 382.945C232.313 396.969 240.494 410.706 249.17 424.154C251.211 427.322 253.877 430.827 257.647 430.899C262.449 431.007 265.427 425.174 264.635 420.458C263.842 415.742 260.673 411.83 258.307 407.666C254.705 401.366 252.868 394.237 251.103 387.205C249.338 380.173 247.501 372.973 246.997 365.676C245.917 348.876 251.98 332.651 255.558 316.259C256.365 313.245 256.654 310.116 256.41 307.006C255.618 300.682 250.671 295.378 244.764 292.978C235.099 289.078 216.225 289.246 212.695 301.366Z" fill="#2E2E3F"/>
<path d="M212.695 301.366C210.954 307.366 212.455 313.751 213.775 319.847C217.26 335.915 219.536 352.221 220.583 368.628C220.647 371.197 220.985 373.752 221.591 376.249C222.346 378.589 223.365 380.836 224.629 382.945C232.313 396.969 240.494 410.706 249.17 424.154C251.211 427.322 253.877 430.827 257.647 430.899C262.449 431.007 265.427 425.174 264.635 420.458C263.842 415.742 260.673 411.83 258.307 407.666C254.705 401.366 252.868 394.237 251.103 387.205C249.338 380.173 247.501 372.973 246.997 365.676C245.917 348.876 251.98 332.651 255.558 316.259C256.365 313.245 256.654 310.116 256.41 307.006C255.618 300.682 250.671 295.378 244.764 292.978C235.099 289.078 216.225 289.246 212.695 301.366Z" fill="url(#paint2_linear)"/>
<path d="M217.545 210.031C213.883 215.971 211.698 222.68 209.549 229.304C207.892 234.404 206.235 239.516 205.023 244.748C202.813 254.265 202.081 264.105 199.379 273.489C196.906 282.106 192.764 291.022 195.285 299.626C196.327 302.883 198.05 305.882 200.34 308.422C205.267 314.017 211.691 318.087 218.856 320.152C226.021 322.216 233.627 322.19 240.778 320.075C243.548 319.251 246.173 318 248.558 316.367C254.873 311.915 258.391 304.366 259.988 296.83C261.585 289.294 261.537 281.47 262.245 273.777C263.446 260.673 266.856 247.784 267.048 234.632C267.24 221.479 263.446 207.343 253.205 199.135C240.141 188.742 225.013 197.935 217.545 210.031Z" fill="#00C894"/>
<path d="M217.545 210.031C213.883 215.971 211.698 222.68 209.549 229.304C207.892 234.404 206.235 239.516 205.023 244.748C202.813 254.265 202.081 264.105 199.379 273.489C196.906 282.106 192.764 291.022 195.285 299.626C196.327 302.883 198.05 305.882 200.34 308.422C205.267 314.017 211.691 318.087 218.856 320.152C226.021 322.216 233.627 322.19 240.778 320.075C243.548 319.251 246.173 318 248.558 316.367C254.873 311.915 258.391 304.366 259.988 296.83C261.585 289.294 261.537 281.47 262.245 273.777C263.446 260.673 266.856 247.784 267.048 234.632C267.24 221.479 263.446 207.343 253.205 199.135C240.141 188.742 225.013 197.935 217.545 210.031Z" fill="url(#paint3_linear)"/>
<path d="M221.327 165.822C220.187 169.794 219.31 173.97 219.959 178.062C220.607 182.154 223.02 186.162 226.862 187.662C228.447 188.298 230.296 188.562 231.413 189.846C232.334 191.216 232.694 192.887 232.421 194.515C232.333 196.154 232.161 197.789 231.905 199.411C231.698 200.312 231.657 201.243 231.785 202.159C231.989 202.947 232.408 203.662 232.995 204.226C233.583 204.79 234.315 205.179 235.111 205.351C236.711 205.682 238.375 205.471 239.841 204.751C244.26 202.795 247.045 198.223 248.246 193.543C249.447 188.862 249.362 183.942 249.747 179.142C250.078 176.439 250.207 173.716 250.131 170.994C249.907 168.033 249.038 165.156 247.587 162.565C246.135 159.975 244.135 157.732 241.726 155.993C238.268 153.509 230.812 150.353 226.682 152.981C225.229 153.905 224.701 155.609 224.161 157.145C223.14 160.013 222.156 162.918 221.327 165.822Z" fill="#F3C091"/>
<path d="M229.048 137.741C228.092 138.005 227.217 138.502 226.501 139.187C225.784 139.871 225.248 140.723 224.941 141.665C224.347 143.563 224.273 145.585 224.725 147.521C225.541 151.791 227.669 155.701 230.812 158.705C232.77 160.565 235.111 162.089 236.48 164.394C237.291 165.879 237.797 167.511 237.968 169.194C238.04 169.71 238.148 170.31 238.617 170.55C239.085 170.79 239.817 170.358 240.322 169.914C241.258 169.014 242.447 168.066 243.707 168.39C244.968 168.714 245.652 170.454 245.652 171.894C245.724 172.739 245.578 173.588 245.229 174.36C244.881 175.133 244.34 175.804 243.659 176.31C243.227 176.574 242.663 176.79 242.531 177.27C242.327 177.978 243.119 178.47 243.539 179.118C243.963 179.956 244.15 180.894 244.08 181.83C244.048 182.293 244.142 182.755 244.354 183.167C244.566 183.58 244.886 183.927 245.28 184.17C245.636 184.262 246.009 184.271 246.369 184.196C246.729 184.121 247.067 183.964 247.357 183.738C249.759 182.262 251.031 179.574 253.06 177.654C254.369 176.454 255.978 175.494 257.347 174.306C258.814 173.06 259.978 171.495 260.75 169.732C261.522 167.969 261.882 166.053 261.801 164.13C261.685 162.207 261.052 160.351 259.971 158.757C258.889 157.163 257.398 155.889 255.654 155.069C253.733 154.229 251.56 154.013 249.771 152.945C247.297 151.469 246.001 148.697 244.524 146.237C243.827 144.902 242.856 143.728 241.675 142.794C240.494 141.859 239.128 141.184 237.668 140.813C234.619 140.021 232.421 137.021 229.048 137.741Z" fill="#452D21"/>
<path d="M258.74 205.135C258.74 205.135 275.26 226.592 280.615 271.137C285.97 315.683 279.619 330.215 279.619 330.215C279.619 330.215 268.213 336.107 265.547 329.675C262.882 323.243 262.269 264.729 252.34 252.081C242.411 239.432 249.675 207.859 258.74 205.135Z" fill="#00C894"/>
<path d="M258.74 205.135C258.74 205.135 275.26 226.592 280.615 271.137C285.97 315.683 279.619 330.215 279.619 330.215C279.619 330.215 268.213 336.107 265.547 329.675C262.882 323.243 262.269 264.729 252.34 252.081C242.411 239.432 249.675 207.859 258.74 205.135Z" fill="url(#paint4_linear)"/>
<path d="M264.238 341.76C263.926 342.66 263.854 344.004 264.791 344.16C265.727 344.316 266.52 343.464 267.036 344.052C267.182 344.258 267.254 344.507 267.24 344.76C267.389 347.331 266.898 349.9 265.811 352.236C265.426 352.824 265.264 353.531 265.355 354.228C265.703 355.428 267.432 355.56 268.645 355.176C273.027 353.82 276.197 349.8 277.554 345.42C278.91 341.04 278.754 336.347 278.178 331.799C278.152 330.348 277.636 328.948 276.713 327.827C274.552 325.727 270.626 326.819 269.269 329.147C267.06 332.951 265.679 337.619 264.238 341.76Z" fill="#F3C091"/>
<path d="M275 74C295.435 74 312 57.4345 312 37C312 16.5655 295.435 0 275 0C254.565 0 238 16.5655 238 37C238 57.4345 254.565 74 275 74Z" fill="#00C894"/>
<path d="M296.562 54.25H295.844C295.653 54.25 295.47 54.3257 295.336 54.4605C295.201 54.5953 295.125 54.7781 295.125 54.9688C295.125 55.1594 295.201 55.3422 295.336 55.477C295.47 55.6118 295.653 55.6875 295.844 55.6875H296.562C296.753 55.6875 296.936 55.6118 297.071 55.477C297.206 55.3422 297.281 55.1594 297.281 54.9688C297.281 54.7781 297.206 54.5953 297.071 54.4605C296.936 54.3257 296.753 54.25 296.562 54.25Z" fill="white"/>
<path d="M293.687 54.25H291.531V38.4375H295.125C295.231 38.4375 295.335 38.4141 295.431 38.369C295.527 38.324 295.611 38.2584 295.679 38.1769C295.746 38.0954 295.795 38.0001 295.821 37.8976C295.847 37.7952 295.851 37.6882 295.831 37.5843L292.956 22.4906C292.925 22.3263 292.837 22.178 292.708 22.0714C292.579 21.9647 292.417 21.9063 292.25 21.9062H290.812V20.4688C290.812 20.2781 290.737 20.0953 290.602 19.9605C290.467 19.8257 290.284 19.75 290.094 19.75H284.344C284.153 19.75 283.97 19.8257 283.836 19.9605C283.701 20.0953 283.625 20.2781 283.625 20.4688V21.9062H264.937C264.77 21.9063 264.608 21.9647 264.479 22.0714C264.351 22.178 264.263 22.3263 264.232 22.4906L261.357 37.5843C261.337 37.6882 261.34 37.7952 261.367 37.8976C261.393 38.0001 261.442 38.0954 261.509 38.1769C261.576 38.2584 261.661 38.324 261.757 38.369C261.852 38.4141 261.957 38.4375 262.062 38.4375H265.656V54.25H259.187V52.7478C259.917 52.6273 260.603 52.3205 261.179 51.8571C261.755 51.3937 262.202 50.7894 262.476 50.1027C262.751 49.416 262.843 48.6701 262.744 47.9373C262.646 47.2045 262.36 46.5095 261.914 45.9197C262.092 45.3224 262.111 44.6887 261.967 44.082C261.824 43.4753 261.524 42.9168 261.097 42.4625C261.26 42.1009 261.344 41.7089 261.344 41.3125C261.344 40.55 261.041 39.8187 260.502 39.2796C259.963 38.7404 259.231 38.4375 258.469 38.4375C257.706 38.4375 256.975 38.7404 256.436 39.2796C255.897 39.8187 255.594 40.55 255.594 41.3125C255.594 41.7089 255.678 42.1009 255.84 42.4625C255.414 42.9168 255.114 43.4751 254.97 44.0817C254.827 44.6882 254.846 45.3218 255.024 45.919C254.577 46.5087 254.291 47.2038 254.192 47.9368C254.093 48.6697 254.186 49.4158 254.46 50.1027C254.734 50.7896 255.181 51.394 255.757 51.8574C256.334 52.3209 257.02 52.6276 257.75 52.7478V54.25H253.437C253.247 54.25 253.064 54.3257 252.929 54.4605C252.794 54.5953 252.719 54.7781 252.719 54.9688C252.719 55.1594 252.794 55.3422 252.929 55.477C253.064 55.6118 253.247 55.6875 253.437 55.6875H293.687C293.878 55.6875 294.061 55.6118 294.196 55.477C294.331 55.3422 294.406 55.1594 294.406 54.9688C294.406 54.7781 294.331 54.5953 294.196 54.4605C294.061 54.3257 293.878 54.25 293.687 54.25ZM255.594 48.5C255.596 47.7764 255.873 47.0806 256.368 46.5529C256.463 46.4499 256.526 46.3213 256.55 46.1828C256.573 46.0444 256.555 45.9022 256.498 45.7738C256.299 45.3289 256.259 44.8293 256.384 44.3584C256.51 43.8875 256.792 43.4738 257.186 43.1863C257.338 43.0719 257.439 42.9016 257.466 42.7129C257.493 42.5242 257.444 42.3325 257.33 42.18C257.137 41.9318 257.032 41.6267 257.031 41.3125C257.031 40.9313 257.183 40.5656 257.452 40.296C257.722 40.0264 258.088 39.875 258.469 39.875C258.85 39.875 259.216 40.0264 259.485 40.296C259.755 40.5656 259.906 40.9313 259.906 41.3125C259.905 41.6249 259.8 41.9281 259.609 42.175C259.494 42.3275 259.445 42.5192 259.472 42.7079C259.499 42.8966 259.6 43.0669 259.752 43.1812C260.146 43.4686 260.429 43.8824 260.554 44.3534C260.679 44.8243 260.639 45.324 260.44 45.7688C260.383 45.8972 260.365 46.0394 260.388 46.1779C260.412 46.3164 260.475 46.445 260.57 46.5479C260.912 46.9099 261.153 47.3551 261.269 47.8391C261.385 48.323 261.373 48.829 261.233 49.3068C261.093 49.7845 260.831 50.2173 260.472 50.5622C260.113 50.9071 259.67 51.1522 259.187 51.2729V49.2188C259.187 49.0281 259.112 48.8453 258.977 48.7105C258.842 48.5757 258.659 48.5 258.469 48.5C258.278 48.5 258.095 48.5757 257.961 48.7105C257.826 48.8453 257.75 49.0281 257.75 49.2188V51.2729C257.135 51.1141 256.589 50.7558 256.199 50.2541C255.809 49.7524 255.596 49.1355 255.594 48.5ZM285.062 21.1875H289.375V21.9062H285.062V21.1875ZM265.533 23.3438H291.655L294.257 37H262.931L265.533 23.3438ZM270.687 54.25V46.3438H274.281V54.25H270.687ZM275.719 54.25V45.625C275.719 45.4344 275.643 45.2516 275.508 45.1168C275.373 44.982 275.191 44.9062 275 44.9062H269.969C269.778 44.9062 269.595 44.982 269.461 45.1168C269.326 45.2516 269.25 45.4344 269.25 45.625V54.25H267.094V38.4375H290.094V54.25H275.719Z" fill="white"/>
<path d="M287.219 44.9062H278.594C278.403 44.9062 278.22 44.982 278.086 45.1168C277.951 45.2516 277.875 45.4344 277.875 45.625V49.9375C277.875 50.1281 277.951 50.3109 278.086 50.4457C278.22 50.5805 278.403 50.6562 278.594 50.6562H287.219C287.409 50.6562 287.592 50.5805 287.727 50.4457C287.862 50.3109 287.938 50.1281 287.938 49.9375V45.625C287.938 45.4344 287.862 45.2516 287.727 45.1168C287.592 44.982 287.409 44.9062 287.219 44.9062ZM279.312 49.2188V46.3438H282.188V49.2188H279.312ZM286.5 49.2188H283.625V46.3438H286.5V49.2188Z" fill="white"/>
<path d="M258.469 47.7812C258.659 47.7812 258.842 47.7055 258.977 47.5707C259.112 47.4359 259.188 47.2531 259.188 47.0625V46.3438C259.188 46.1531 259.112 45.9703 258.977 45.8355C258.842 45.7007 258.659 45.625 258.469 45.625C258.278 45.625 258.095 45.7007 257.961 45.8355C257.826 45.9703 257.75 46.1531 257.75 46.3438V47.0625C257.75 47.2531 257.826 47.4359 257.961 47.5707C258.095 47.7055 258.278 47.7812 258.469 47.7812Z" fill="white"/>
<path d="M379 206C399.435 206 416 189.435 416 169C416 148.565 399.435 132 379 132C358.565 132 342 148.565 342 169C342 189.435 358.565 206 379 206Z" fill="#00C894"/>
<g clip-path="url(#clip0)">
<path d="M375.163 165.967H378.563V167.667H375.163V165.967Z" fill="white"/>
<path d="M404.185 163.425L398.411 162.601C397.358 161.954 396.266 161.375 395.139 160.867C391.419 159.181 387.381 158.312 383.296 158.316H382.293C377.473 158.32 372.73 159.529 368.496 161.835L365.582 163.424C362.171 163.463 358.825 164.37 355.862 166.059C354.657 166.75 353.913 168.032 353.911 169.42V174.467C353.911 174.937 354.292 175.318 354.762 175.318H357.616C358.544 177.966 361.444 179.361 364.092 178.432C365.55 177.921 366.696 176.775 367.207 175.318H389.918C390.847 177.966 393.746 179.361 396.395 178.432C397.852 177.921 398.998 176.775 399.509 175.318H399.814C399.923 175.318 400.03 175.297 400.131 175.257L402.884 174.152C404.114 173.665 404.919 172.475 404.915 171.152V164.267C404.915 163.844 404.604 163.485 404.185 163.425ZM365.743 174.298C365.367 176.137 363.571 177.324 361.731 176.948C359.891 176.572 358.704 174.776 359.08 172.936C359.457 171.096 361.253 169.909 363.093 170.285C364.676 170.609 365.812 172.002 365.812 173.618C365.812 173.846 365.789 174.074 365.743 174.298ZM381.113 173.618H367.512C367.512 170.801 365.229 168.517 362.412 168.517C359.595 168.517 357.311 170.801 357.311 173.618H355.611V169.42C355.612 168.641 356.03 167.922 356.705 167.535C359.48 165.952 362.618 165.118 365.812 165.117H381.113V173.618ZM381.113 163.417H369.146L369.31 163.327C372.944 161.352 376.981 160.233 381.113 160.054V163.417ZM382.813 160.016H383.294C386.72 160.013 390.115 160.663 393.296 161.933L391.812 163.417H382.813V160.016ZM398.046 174.298C397.67 176.137 395.873 177.324 394.033 176.948C392.193 176.572 391.007 174.776 391.383 172.936C391.759 171.096 393.555 169.909 395.395 170.285C396.978 170.609 398.115 172.002 398.114 173.618C398.114 173.846 398.091 174.074 398.046 174.298ZM403.215 165.967H400.665V167.667H403.215V171.152C403.217 171.779 402.835 172.343 402.253 172.573L399.814 173.552C399.814 173.474 399.804 173.396 399.799 173.318C399.794 173.24 399.792 173.148 399.784 173.063C399.775 172.978 399.758 172.893 399.745 172.808C399.731 172.723 399.721 172.638 399.704 172.561C399.687 172.483 399.662 172.398 399.64 172.317C399.618 172.236 399.601 172.154 399.575 172.075C399.55 171.996 399.519 171.921 399.491 171.843C399.462 171.766 399.435 171.686 399.406 171.609C399.376 171.533 399.336 171.463 399.3 171.391C399.264 171.319 399.23 171.24 399.19 171.167C399.15 171.094 399.105 171.031 399.066 170.963C399.028 170.895 398.982 170.818 398.933 170.748C398.884 170.678 398.839 170.623 398.793 170.561C398.746 170.498 398.693 170.424 398.639 170.358C398.584 170.293 398.534 170.242 398.481 170.188C398.428 170.135 398.369 170.062 398.311 170.003C398.252 169.943 398.194 169.896 398.136 169.844C398.077 169.791 398.014 169.729 397.949 169.674C397.885 169.619 397.819 169.576 397.755 169.528C397.69 169.479 397.626 169.427 397.558 169.382C397.49 169.337 397.413 169.297 397.34 169.25C397.267 169.202 397.207 169.165 397.139 169.128C397.07 169.092 396.984 169.053 396.906 169.016C396.828 168.978 396.766 168.945 396.694 168.915C396.622 168.884 396.524 168.852 396.439 168.821C396.354 168.791 396.299 168.767 396.226 168.744C396.13 168.714 396.03 168.693 395.931 168.668C395.867 168.653 395.805 168.633 395.739 168.619C395.635 168.598 395.528 168.586 395.422 168.57C395.359 168.562 395.298 168.548 395.236 168.542C395.065 168.525 394.896 168.516 394.717 168.516C391.901 168.519 389.619 170.801 389.617 173.616H382.814V165.117H392.164C392.39 165.117 392.606 165.027 392.765 164.868L394.969 162.663C395.894 163.103 396.794 163.596 397.664 164.137C397.764 164.2 397.876 164.241 397.994 164.258L403.215 165.003V165.967Z" fill="white"/>
</g>
<path d="M37 341C57.4345 341 74 324.435 74 304C74 283.565 57.4345 267 37 267C16.5655 267 0 283.565 0 304C0 324.435 16.5655 341 37 341Z" fill="#00C894"/>
<g clip-path="url(#clip1)">
<path d="M55.2977 289.516L37.6331 280.104C37.371 279.964 37.0569 279.966 36.7968 280.108L19.621 289.521C19.3393 289.676 19.1646 289.971 19.1646 290.293V302.588C19.1749 312.695 25.163 321.839 34.4235 325.888L36.8076 326.927C37.0304 327.024 37.2841 327.024 37.5074 326.928L40.1938 325.768C49.6261 321.806 55.7625 312.574 55.7634 302.344V290.293C55.7634 289.968 55.5843 289.669 55.2977 289.516ZM54.0046 302.344C54.0026 311.869 48.2878 320.464 39.5053 324.15L39.4994 324.153L37.16 325.163L35.1273 324.276C26.5072 320.507 20.9327 311.996 20.9229 302.588V290.813L37.2252 281.879L54.0046 290.82V302.344Z" fill="white"/>
<path d="M30.7368 302.018C30.4213 301.648 29.8662 301.604 29.4967 301.92C29.1272 302.235 29.0835 302.791 29.399 303.16L34.0445 308.6C34.3547 308.963 34.8979 309.012 35.268 308.711L46.0871 299.909C46.464 299.603 46.5209 299.049 46.2142 298.672C45.908 298.295 45.3539 298.238 44.977 298.545L34.8243 306.804L30.7368 302.018Z" fill="white"/>
</g>
<path d="M66 138C86.4345 138 103 121.435 103 101C103 80.5655 86.4345 64 66 64C45.5655 64 29 80.5655 29 101C29 121.435 45.5655 138 66 138Z" fill="#00C894"/>
<path d="M85.2985 99.8764H81.8298C83.2719 96.6027 83.116 93.9525 82.5703 92.1597C81.635 88.9639 78.4781 85.4953 73.8013 85.4953C72.5542 85.4953 71.307 85.7291 70.0209 86.1968C67.7994 87.0152 66.3184 87.9116 65.6559 88.3793C64.9933 87.9116 63.5513 87.0152 61.2909 86.1968C60.0048 85.7291 58.7186 85.4953 57.5105 85.4953C52.8336 85.4953 49.6768 88.9639 48.7414 92.1597C48.1958 94.0694 48.001 96.9534 49.8327 100.578H45.6236C45.2728 100.578 45 100.851 45 101.202C45 101.552 45.2728 101.825 45.6236 101.825H50.5732C50.7681 102.176 51.0019 102.527 51.2747 102.877C55.3279 108.723 64.1359 115.076 65.7338 115.466V115.505C65.7338 115.505 65.7728 115.505 65.8118 115.466C65.8508 115.466 65.8897 115.466 65.9287 115.466V115.427C67.2928 114.764 75.75 109.308 80.193 102.838C80.6217 102.254 80.9724 101.669 81.2842 101.085H85.3764C85.7272 101.085 86 100.812 86 100.461C86 100.11 85.6492 99.8764 85.2985 99.8764ZM79.0627 102.176C74.9316 108.217 67.3317 113.088 65.6949 114.141C64.019 113.088 56.4582 108.178 52.288 102.176C52.2101 102.059 52.1321 101.942 52.0542 101.825H57.7833C58.0171 101.825 58.251 101.708 58.3679 101.474L60.9791 96.3299L65.0713 106.814C65.1492 107.048 65.4221 107.203 65.6559 107.203C65.6559 107.203 65.6559 107.203 65.6949 107.203C65.9677 107.203 66.2015 107.009 66.2795 106.736L69.865 94.4591L71.7747 100.656C71.8527 100.89 72.0475 101.046 72.2814 101.085C72.5152 101.124 72.7491 101.007 72.9049 100.812L74.4249 98.5903L75.711 100.773C75.8279 100.968 76.0228 101.085 76.2567 101.085H79.7643C79.5304 101.474 79.2966 101.825 79.0627 102.176ZM80.4658 99.8764H76.6464L75.0485 97.1483C74.9316 96.9534 74.7367 96.8365 74.5029 96.8365C74.269 96.8365 74.0741 96.9145 73.9572 97.1093L72.6321 99.058L70.4886 92.0818C70.4106 91.8089 70.1378 91.653 69.865 91.6141C69.5922 91.6141 69.3194 91.8089 69.2414 92.0818L65.6169 104.592L61.6806 94.5371C61.6027 94.3032 61.3688 94.1473 61.135 94.1473C60.8622 94.1473 60.6673 94.2643 60.5504 94.4981L57.4715 100.539H51.2747C49.7158 97.6939 49.2871 94.9658 49.9886 92.5105C50.807 89.7434 53.4962 86.7814 57.5494 86.7814C58.6407 86.7814 59.7709 87.0152 60.9011 87.405C63.7462 88.4572 65.2662 89.6654 65.3051 89.6654C65.539 89.8603 65.8508 89.8603 66.0846 89.6654C66.0846 89.6654 67.6046 88.4572 70.4886 87.405C71.6188 86.9762 72.7491 86.7814 73.8403 86.7814C77.8546 86.7814 80.5827 89.7434 81.4011 92.5105C82.0637 94.7709 81.7129 97.2652 80.4658 99.8764Z" fill="white"/>
<defs>
<linearGradient id="paint0_linear" x1="228.051" y1="251.289" x2="190.028" y2="223.693" gradientUnits="userSpaceOnUse">
<stop offset="0.01"/>
<stop offset="0.13" stop-opacity="0.69"/>
<stop offset="1" stop-opacity="0"/>
</linearGradient>
<linearGradient id="paint1_linear" x1="7669.39" y1="38569.9" x2="6749.52" y2="38547.1" gradientUnits="userSpaceOnUse">
<stop offset="0.01"/>
<stop offset="0.13" stop-opacity="0.69"/>
<stop offset="1" stop-opacity="0"/>
</linearGradient>
<linearGradient id="paint2_linear" x1="12954.2" y1="42977.1" x2="11115.2" y2="43050.7" gradientUnits="userSpaceOnUse">
<stop offset="0.01"/>
<stop offset="0.13" stop-opacity="0.69"/>
<stop offset="1" stop-opacity="0"/>
</linearGradient>
<linearGradient id="paint3_linear" x1="18899.9" y1="28518.1" x2="14972.5" y2="28300.5" gradientUnits="userSpaceOnUse">
<stop offset="0.01"/>
<stop offset="0.13" stop-opacity="0.69"/>
<stop offset="1" stop-opacity="0"/>
</linearGradient>
<linearGradient id="paint4_linear" x1="9774.76" y1="28950.2" x2="8340.3" y2="29017.9" gradientUnits="userSpaceOnUse">
<stop offset="0.01"/>
<stop offset="0.13" stop-opacity="0.69"/>
<stop offset="1" stop-opacity="0"/>
</linearGradient>
<clipPath id="clip0">
<rect width="51" height="51" fill="white" transform="translate(354 143)"/>
</clipPath>
<clipPath id="clip1">
<rect width="47" height="47" fill="white" transform="translate(14 280)"/>
</clipPath>
</defs>
</svg>
