<svg width="136" height="16" viewBox="0 0 136 16" fill="none" xmlns="http://www.w3.org/2000/svg">
<path d="M0.42 0.76H3.54V15H0.42V0.76ZM12.4566 4.6C14.8566 4.6 16.0566 6.02 16.0566 8.86V15H13.0366V9C13.0366 8.29333 12.9032 7.78 12.6366 7.46C12.3832 7.12667 11.9766 6.96 11.4166 6.96C10.7499 6.96 10.2166 7.17333 9.81656 7.6C9.41656 8.02667 9.21656 8.6 9.21656 9.32V15H6.19656V7.76C6.19656 6.68 6.14323 5.71333 6.03656 4.86H8.87656L9.07656 6.46C9.43656 5.86 9.90323 5.4 10.4766 5.08C11.0632 4.76 11.7232 4.6 12.4566 4.6ZM22.3422 15.16C20.4222 15.16 18.9089 14.7467 17.8022 13.92L18.6022 11.82C19.1355 12.2067 19.7289 12.5067 20.3822 12.72C21.0355 12.92 21.7022 13.02 22.3822 13.02C22.9022 13.02 23.3022 12.94 23.5822 12.78C23.8622 12.62 24.0022 12.3867 24.0022 12.08C24.0022 11.8267 23.9022 11.6267 23.7022 11.48C23.5022 11.3333 23.1489 11.2067 22.6422 11.1L20.9822 10.72C20.0089 10.5067 19.2889 10.1667 18.8222 9.7C18.3689 9.23333 18.1422 8.61333 18.1422 7.84C18.1422 7.21333 18.3222 6.65333 18.6822 6.16C19.0555 5.66667 19.5689 5.28667 20.2222 5.02C20.8755 4.74 21.6289 4.6 22.4822 4.6C23.2022 4.6 23.9089 4.71333 24.6022 4.94C25.2955 5.15333 25.9155 5.46 26.4622 5.86L25.6222 7.88C25.1022 7.52 24.5689 7.24667 24.0222 7.06C23.4889 6.87333 22.9689 6.78 22.4622 6.78C21.9689 6.78 21.5822 6.86667 21.3022 7.04C21.0222 7.21333 20.8822 7.45333 20.8822 7.76C20.8822 7.98667 20.9622 8.17333 21.1222 8.32C21.2955 8.45333 21.5955 8.56667 22.0222 8.66L23.7222 9.04C24.7622 9.28 25.5155 9.64 25.9822 10.12C26.4489 10.6 26.6822 11.24 26.6822 12.04C26.6822 13 26.2955 13.76 25.5222 14.32C24.7489 14.88 23.6889 15.16 22.3422 15.16ZM38.2008 4.86V15H35.2608V13.52C34.9408 14.0533 34.5208 14.46 34.0008 14.74C33.4808 15.02 32.8941 15.16 32.2408 15.16C30.9741 15.16 30.0274 14.8067 29.4008 14.1C28.7741 13.3933 28.4608 12.3267 28.4608 10.9V4.86H31.4808V10.96C31.4808 12.1867 32.0074 12.8 33.0608 12.8C33.6874 12.8 34.1941 12.5867 34.5808 12.16C34.9674 11.7333 35.1608 11.1733 35.1608 10.48V4.86H38.2008ZM46.5497 4.62C46.9764 4.62 47.3364 4.68667 47.6297 4.82L47.6097 7.58C47.1164 7.35333 46.623 7.24 46.1297 7.24C45.3297 7.24 44.7164 7.46 44.2897 7.9C43.8764 8.32667 43.6697 8.92667 43.6697 9.7V15H40.6497V7.76C40.6497 6.68 40.5964 5.71333 40.4897 4.86H43.3297L43.5297 6.6C43.783 5.96 44.1764 5.47333 44.7097 5.14C45.2564 4.79333 45.8697 4.62 46.5497 4.62ZM58.8175 4.86V15H55.8375V13.5C55.5308 14.02 55.0975 14.4267 54.5375 14.72C53.9775 15.0133 53.3442 15.16 52.6375 15.16C51.7575 15.16 50.9775 14.9467 50.2975 14.52C49.6308 14.0933 49.1042 13.4867 48.7175 12.7C48.3442 11.9 48.1575 10.98 48.1575 9.94C48.1575 8.9 48.3442 7.97333 48.7175 7.16C49.1042 6.34667 49.6375 5.72 50.3175 5.28C50.9975 4.82667 51.7708 4.6 52.6375 4.6C53.3442 4.6 53.9775 4.75333 54.5375 5.06C55.0975 5.36667 55.5308 5.78 55.8375 6.3V4.86H58.8175ZM53.5175 12.86C54.2642 12.86 54.8375 12.6067 55.2375 12.1C55.6375 11.5933 55.8375 10.86 55.8375 9.9C55.8375 8.94 55.6375 8.20667 55.2375 7.7C54.8375 7.18 54.2642 6.92 53.5175 6.92C52.7708 6.92 52.1908 7.18667 51.7775 7.72C51.3642 8.25333 51.1575 8.99333 51.1575 9.94C51.1575 10.8867 51.3575 11.6133 51.7575 12.12C52.1708 12.6133 52.7575 12.86 53.5175 12.86ZM67.5152 4.6C69.9152 4.6 71.1152 6.02 71.1152 8.86V15H68.0952V9C68.0952 8.29333 67.9618 7.78 67.6952 7.46C67.4418 7.12667 67.0352 6.96 66.4752 6.96C65.8085 6.96 65.2752 7.17333 64.8752 7.6C64.4752 8.02667 64.2752 8.6 64.2752 9.32V15H61.2552V7.76C61.2552 6.68 61.2018 5.71333 61.0952 4.86H63.9352L64.1352 6.46C64.4952 5.86 64.9618 5.4 65.5352 5.08C66.1218 4.76 66.7818 4.6 67.5152 4.6ZM78.3208 15.16C76.6674 15.16 75.3674 14.6933 74.4208 13.76C73.4874 12.8267 73.0208 11.5533 73.0208 9.94C73.0208 8.88667 73.2474 7.96 73.7008 7.16C74.1541 6.34667 74.7874 5.72 75.6008 5.28C76.4274 4.82667 77.3808 4.6 78.4608 4.6C79.1941 4.6 79.9074 4.71333 80.6008 4.94C81.2941 5.16667 81.8474 5.47333 82.2608 5.86L81.4608 7.96C81.0608 7.64 80.6208 7.39333 80.1408 7.22C79.6608 7.03333 79.1941 6.94 78.7408 6.94C77.9141 6.94 77.2674 7.19333 76.8008 7.7C76.3474 8.19333 76.1208 8.92 76.1208 9.88C76.1208 10.8533 76.3474 11.5933 76.8008 12.1C77.2541 12.5933 77.9008 12.84 78.7408 12.84C79.1941 12.84 79.6608 12.7533 80.1408 12.58C80.6208 12.3933 81.0608 12.14 81.4608 11.82L82.2608 13.92C81.8208 14.3067 81.2474 14.6133 80.5408 14.84C79.8341 15.0533 79.0941 15.16 78.3208 15.16ZM92.7966 10.18H86.1166C86.1699 11.1267 86.4166 11.82 86.8566 12.26C87.2966 12.6867 87.9499 12.9 88.8166 12.9C89.3366 12.9 89.8566 12.8133 90.3766 12.64C90.8966 12.4667 91.3766 12.2133 91.8166 11.88L92.6166 13.92C92.1366 14.3067 91.5366 14.6133 90.8166 14.84C90.1099 15.0533 89.3966 15.16 88.6766 15.16C86.9699 15.16 85.6299 14.6933 84.6566 13.76C83.6832 12.8133 83.1966 11.5267 83.1966 9.9C83.1966 8.87333 83.4032 7.96 83.8166 7.16C84.2432 6.34667 84.8366 5.72 85.5966 5.28C86.3566 4.82667 87.2166 4.6 88.1766 4.6C89.6032 4.6 90.7299 5.06667 91.5566 6C92.3832 6.92 92.7966 8.16667 92.7966 9.74V10.18ZM88.2566 6.72C87.6832 6.72 87.2166 6.88667 86.8566 7.22C86.5099 7.55333 86.2832 8.04 86.1766 8.68H90.1966C90.0366 7.37333 89.3899 6.72 88.2566 6.72Z" fill="#222222"/>
<path d="M94.8927 0.76H104.493V3.22H97.9727V6.52H104.093V9H97.9727V15H94.8927V0.76ZM106.255 4.86H109.275V15H106.255V4.86ZM109.375 0.0999987V2.94H106.155V0.0999987H109.375ZM117.643 4.62C118.07 4.62 118.43 4.68667 118.723 4.82L118.703 7.58C118.21 7.35333 117.717 7.24 117.223 7.24C116.423 7.24 115.81 7.46 115.383 7.9C114.97 8.32667 114.763 8.92667 114.763 9.7V15H111.743V7.76C111.743 6.68 111.69 5.71333 111.583 4.86H114.423L114.623 6.6C114.877 5.96 115.27 5.47333 115.803 5.14C116.35 4.79333 116.963 4.62 117.643 4.62ZM132.347 4.6C133.507 4.6 134.367 4.95333 134.927 5.66C135.5 6.35333 135.787 7.42 135.787 8.86V15H132.767V8.96C132.767 8.25333 132.653 7.74667 132.427 7.44C132.2 7.12 131.827 6.96 131.307 6.96C130.693 6.96 130.22 7.17333 129.887 7.6C129.553 8.02667 129.387 8.62667 129.387 9.4V15H126.367V8.96C126.367 8.26667 126.247 7.76 126.007 7.44C125.78 7.12 125.413 6.96 124.907 6.96C124.293 6.96 123.813 7.17333 123.467 7.6C123.133 8.02667 122.967 8.62667 122.967 9.4V15H119.947V7.76C119.947 6.68 119.893 5.71333 119.787 4.86H122.627L122.807 6.38C123.113 5.80667 123.54 5.36667 124.087 5.06C124.647 4.75333 125.287 4.6 126.007 4.6C127.513 4.6 128.513 5.22667 129.007 6.48C129.34 5.90667 129.8 5.45333 130.387 5.12C130.987 4.77333 131.64 4.6 132.347 4.6Z" fill="#00C894"/>
</svg>
