<?xml version="1.0" encoding="UTF-8"?> <!-- Generator: Adobe Illustrator 17.1.0, SVG Export Plug-In . SVG Version: 6.00 Build 0) --> <svg xmlns="http://www.w3.org/2000/svg" xmlns:xlink="http://www.w3.org/1999/xlink" id="Layer_1" x="0px" y="0px" viewBox="0 0 45.4 60" xml:space="preserve"> <g id="badge_1_" transform="translate(-75.998 -19)"> <path id="Path_187" fill="#343A40" d="M77.2,73.1l9.1-3l4.9,8.5c0.2,0.3,0.4,0.4,0.8,0.4h0.1c0.3,0,0.6-0.2,0.8-0.6l6-15.4l6,15.4 c0.1,0.3,0.4,0.5,0.8,0.6h0.1c0.3,0,0.6-0.2,0.8-0.4l4.9-8.5l9.1,3c0.5,0.2,1-0.1,1.1-0.6c0.1-0.2,0.1-0.4,0-0.6l-8.8-22.7 c-0.2-0.5-0.7-0.7-1.1-0.5c-0.5,0.2-0.7,0.7-0.5,1.1l0,0l8.1,20.9l-7.9-2.7c-0.4-0.1-0.8,0-1,0.4l-4.3,7.5L97.9,56 c-0.2-0.5-0.7-0.7-1.1-0.5c-0.5,0.2-0.7,0.7-0.5,1.1l0,0l1.5,3.9l-6,15.5l-4.3-7.5c-0.2-0.4-0.6-0.5-1-0.4l-7.9,2.7l8.1-20.9 c0.2-0.5,0-1-0.5-1.1c-0.5-0.2-1,0-1.1,0.5l0,0l-8.8,22.7c-0.2,0.5,0.1,1,0.5,1.1C76.7,73.1,77,73.1,77.2,73.1L77.2,73.1z"></path> <path id="Path_188" fill="#0089CE" d="M98.7,50.2c6.6,0,12-5.3,12-11.9s-5.3-12-11.9-12c-6.6,0-12,5.3-12,11.9c0,0,0,0,0,0 C86.8,44.8,92.1,50.2,98.7,50.2z M98.7,28.1c5.6,0,10.2,4.5,10.2,10.1c0,5.6-4.5,10.2-10.1,10.2c-5.6,0-10.2-4.5-10.2-10.1 c0,0,0,0,0,0C88.6,32.7,93.1,28.1,98.7,28.1L98.7,28.1z"></path> <path id="Path_189" fill="#0089CE" d="M81.9,42.8c-1.4,2.6-0.3,5.9,2.3,7.2c0.7,0.3,1.4,0.5,2.2,0.6c0.1,2.9,2.6,5.2,5.6,5.1 c0.8,0,1.5-0.2,2.2-0.6c1.6,2.5,4.9,3.2,7.4,1.6c0.6-0.4,1.2-1,1.6-1.6c2.6,1.3,5.8,0.3,7.2-2.3c0.3-0.7,0.5-1.4,0.6-2.2 c0.3,0,0.6-0.1,0.9-0.1c2.9-0.7,4.7-3.6,4-6.4c-0.1-0.4-0.3-0.8-0.4-1.2c2.5-1.6,3.2-4.9,1.6-7.4c-0.4-0.6-0.9-1.2-1.6-1.6 c1.3-2.6,0.3-5.9-2.3-7.2c-0.7-0.3-1.4-0.5-2.2-0.6c-0.1-2.9-2.6-5.2-5.6-5.1c-0.8,0-1.5,0.2-2.2,0.6c-1.6-2.5-4.9-3.2-7.4-1.6 c-0.6,0.4-1.2,1-1.6,1.6c-2.6-1.3-5.8-0.3-7.2,2.3c-0.3,0.7-0.5,1.4-0.6,2.2c-3,0.2-5.2,2.7-5.1,5.6c0,0.8,0.2,1.5,0.6,2.2 c-2.5,1.6-3.2,4.9-1.6,7.4C80.8,41.8,81.3,42.4,81.9,42.8L81.9,42.8z M83.5,34.9c0.5-0.2,0.7-0.7,0.5-1.1c0-0.1-0.1-0.2-0.1-0.2 c-0.9-1.2-1-2.8-0.3-4c0.7-1.3,2.2-2,3.6-1.8c0.5,0.1,0.9-0.3,1-0.7c0-0.1,0-0.2,0-0.3c-0.3-2,1-3.8,3-4.1c1-0.2,2,0.1,2.8,0.7 c0.4,0.3,0.9,0.2,1.2-0.1c0.1-0.1,0.1-0.1,0.1-0.2c0.7-1.8,2.8-2.8,4.6-2c0.9,0.4,1.7,1.1,2,2c0.2,0.5,0.7,0.7,1.1,0.5 c0.1,0,0.2-0.1,0.2-0.1c1.5-1.2,3.8-1,5,0.6c0.6,0.8,0.9,1.8,0.7,2.8c-0.1,0.5,0.3,0.9,0.7,1c0.1,0,0.2,0,0.3,0 c1.5-0.2,2.9,0.5,3.6,1.8c0.7,1.3,0.6,2.9-0.3,4c-0.3,0.4-0.2,0.9,0.1,1.2c0.1,0.1,0.1,0.1,0.2,0.1c1.8,0.7,2.8,2.8,2,4.7 c-0.4,0.9-1.1,1.7-2,2c-0.5,0.2-0.7,0.7-0.5,1.1c0,0.1,0.1,0.2,0.1,0.2c0.9,1.2,1,2.8,0.3,4c-0.5,0.9-1.3,1.5-2.3,1.7 c-0.4,0.1-0.9,0.1-1.3,0.1c-0.5-0.1-0.9,0.3-1,0.7c0,0.1,0,0.2,0,0.3c0.3,2-1,3.8-3,4.1c-1,0.2-2-0.1-2.8-0.7 c-0.4-0.3-0.9-0.2-1.2,0.1c-0.1,0.1-0.1,0.1-0.1,0.2c-0.7,1.8-2.8,2.8-4.6,2c-0.9-0.4-1.7-1.1-2-2c-0.2-0.5-0.7-0.7-1.1-0.5 c-0.1,0-0.2,0.1-0.2,0.1c-1.5,1.2-3.8,1-5-0.6c-0.6-0.8-0.9-1.8-0.7-2.8c0.1-0.5-0.3-0.9-0.7-1c-0.1,0-0.2,0-0.3,0 c-2,0.3-3.8-1.1-4.1-3c-0.1-1,0.1-2,0.7-2.8c0.3-0.4,0.2-0.9-0.1-1.2c-0.1-0.1-0.1-0.1-0.2-0.1c-1.8-0.7-2.8-2.8-2-4.7 C81.9,36,82.6,35.3,83.5,34.9L83.5,34.9z"></path> </g> </svg> 