<?xml version="1.0" encoding="UTF-8"?> <!-- Generator: Adobe Illustrator 17.1.0, SVG Export Plug-In . SVG Version: 6.00 Build 0) --> <svg xmlns="http://www.w3.org/2000/svg" xmlns:xlink="http://www.w3.org/1999/xlink" id="Layer_1" x="0px" y="0px" viewBox="0 0 56.7 60" xml:space="preserve"> <g id="budget" transform="translate(-24.997 -11.318)"> <path id="Path_191" fill="#0089CE" d="M66.5,68.4c6.7,0,12.2-5.5,12.2-12.2S73.3,44,66.5,44c-6.7,0-12.2,5.5-12.2,12.2l0,0 C54.4,62.9,59.8,68.4,66.5,68.4z M66.5,45.5c5.9,0,10.7,4.8,10.7,10.7s-4.8,10.7-10.7,10.7s-10.7-4.8-10.7-10.7c0,0,0,0,0,0 C55.8,50.3,60.6,45.5,66.5,45.5C66.5,45.5,66.5,45.5,66.5,45.5L66.5,45.5z"></path> <path id="Path_192" fill="#0089CE" d="M66.6,62.5L66.6,62.5c-1.5,0-2.6-1.2-2.6-2.6c0-0.4-0.3-0.7-0.7-0.7c-0.4,0-0.7,0.3-0.7,0.7 c0,0,0,0,0,0c0,2,1.4,3.7,3.3,4v1.3c0,0.4,0.4,0.7,0.8,0.7c0.4,0,0.7-0.3,0.7-0.7v-1.3c2.2-0.4,3.6-2.5,3.2-4.7 c-0.4-1.9-2-3.3-4-3.3c-1.4,0-2.6-1.1-2.6-2.6c0-1.4,1.1-2.6,2.6-2.6c1.4,0,2.6,1.1,2.6,2.6c0,0,0,0,0,0c0,0.4,0.3,0.7,0.7,0.7 c0.4,0,0.7-0.3,0.8-0.7c0-1.9-1.4-3.6-3.3-4v-1.1c0-0.4-0.4-0.7-0.8-0.7c-0.4,0-0.7,0.3-0.7,0.7v1.2c-1.9,0.3-3.3,2-3.3,4 c0,2.2,1.8,4,4,4c1.4,0,2.6,1.1,2.6,2.6S68,62.5,66.6,62.5L66.6,62.5z"></path> <path id="Path_193" fill="#343A40" d="M29.2,28.3c1.3,0,2.6-0.6,3.4-1.7l5,3.5c-0.6,2.2,0.7,4.5,2.9,5.1c2.2,0.6,4.5-0.7,5.1-2.9 c0.1-0.5,0.2-1.1,0.1-1.7l5.3-4.5c1.6,1.7,4.2,1.7,5.9,0.2c1.2-1.2,1.6-2.9,1-4.5l4.8-4.4c1,2,3.5,2.9,5.6,1.8s2.9-3.5,1.8-5.6 s-3.5-2.9-5.6-1.8c-1.4,0.7-2.3,2.1-2.3,3.7c0,0.1,0,0.2,0,0.3l-5.2,4.7c-1.5-1.7-4.2-1.9-5.9-0.3c-1.3,1.2-1.8,3.1-1.1,4.7l-5,4.2 c-1.1-2-3.7-2.7-5.7-1.5c-0.5,0.3-1,0.7-1.3,1.2l-5-3.5c0.6-2.2-0.7-4.5-2.9-5.1c-2.2-0.6-4.5,0.7-5.1,2.9s0.7,4.5,2.9,5.1 C28.4,28.2,28.8,28.3,29.2,28.3z M66.4,12.8c1.5,0,2.7,1.2,2.7,2.7s-1.2,2.7-2.7,2.7s-2.7-1.2-2.7-2.7l0,0 C63.7,14,64.9,12.8,66.4,12.8L66.4,12.8z M54,20.6c1.5,0,2.7,1.2,2.7,2.7c0,1.5-1.2,2.7-2.7,2.7c-1.5,0-2.7-1.2-2.7-2.7 C51.3,21.8,52.5,20.6,54,20.6L54,20.6z M41.6,28.5c1.5,0,2.7,1.2,2.7,2.7s-1.2,2.7-2.7,2.7s-2.7-1.2-2.7-2.7l0,0 C38.9,29.7,40.1,28.5,41.6,28.5z M29.2,21.4c1.5,0,2.7,1.2,2.7,2.7s-1.2,2.7-2.7,2.7s-2.7-1.2-2.7-2.7l0,0 C26.5,22.6,27.7,21.4,29.2,21.4z"></path> <path id="Path_194" fill="#343A40" d="M70.1,42.2V24.7c0-0.4-0.3-0.7-0.6-0.8c0,0,0,0,0,0h-6.1c-0.4,0-0.7,0.3-0.7,0.8v17.5h1.5 V25.4h4.5v16.8H70.1z"></path> <path id="Path_195" fill="#343A40" d="M57.7,45.4V32.4c0-0.4-0.3-0.8-0.7-0.8H51c-0.4,0-0.7,0.4-0.7,0.8v17.9 c0,0.4,0.3,0.7,0.6,0.7c0,0,0,0,0.1,0h2.5v-1.5h-1.7V33.1h4.5v12.3H57.7z"></path> <path id="Path_196" fill="#343A40" d="M45.2,40.5c0-0.4-0.3-0.7-0.7-0.7h-6c-0.4,0-0.7,0.3-0.7,0.7v9.9c0,0.4,0.3,0.7,0.7,0.7h6 c0.4,0,0.7-0.3,0.7-0.7V40.5z M39.2,41.2h4.7v8.3h-4.7V41.2z"></path> <path id="Path_197" fill="#343A40" d="M32.8,33.3c0-0.4-0.3-0.7-0.7-0.7h-6c-0.4,0-0.7,0.3-0.7,0.7v16.9c0,0.4,0.3,0.7,0.7,0.7h6 c0.4,0,0.7-0.3,0.7-0.7L32.8,33.3z M31.5,49.5h-4.7V34.1h4.7V49.5z"></path> <path id="Path_198" fill="#0089CE" d="M66.5,71.3c8.4,0,15.1-6.8,15.1-15.1c0-8.4-6.8-15.1-15.1-15.1c-8.4,0-15.1,6.8-15.1,15.1 c0,0,0,0,0,0C51.4,64.5,58.2,71.3,66.5,71.3z M54.1,50.6c0.8-1.8,2-3.4,3.4-4.7c5.6-5,14.2-4.4,19.2,1.2c5,5.6,4.4,14.2-1.2,19.2 s-14.2,4.4-19.2-1.2C52.8,61.2,51.9,55.5,54.1,50.6z"></path> </g> </svg> 