<?xml version="1.0" encoding="UTF-8"?> <!-- Generator: Adobe Illustrator 17.1.0, SVG Export Plug-In . SVG Version: 6.00 Build 0) --> <svg xmlns="http://www.w3.org/2000/svg" xmlns:xlink="http://www.w3.org/1999/xlink" id="Layer_1" x="0px" y="0px" viewBox="0 0 60 60" xml:space="preserve"> <g id="money_1_" transform="translate(-18.996 -18.996)"> <path id="Path_200" fill="#0089CE" d="M28.6,74.8l3.1-2.6c1.5,0.9,3.2,1.6,4.9,2.1l0.4,4c0,0.4,0.4,0.7,0.8,0.7h6.2 c0.4,0,0.7-0.3,0.8-0.7l0.4-4.1c1.7-0.4,3.4-1.1,4.9-2.1l3.1,2.6c0.3,0.3,0.7,0.2,1,0l4.4-4.4c0.3-0.3,0.3-0.7,0-1l-2.6-3.1 c0.9-1.5,1.6-3.2,2.1-4.9l4-0.4c0.4,0,0.7-0.4,0.7-0.8v-6.2c0-0.4-0.3-0.7-0.7-0.8l-4.1-0.4c-0.4-1.7-1.1-3.4-2.1-4.9l2.6-3.1 c0.2-0.3,0.2-0.7,0-1l-4.3-4.4c-0.3-0.3-0.7-0.3-1-0.1l-3.1,2.6c-1.5-0.9-3.2-1.6-4.9-2.1l-0.4-4.1c0-0.4-0.4-0.7-0.8-0.7h-6.2 c-0.4,0-0.7,0.3-0.8,0.7l-0.4,4.1c-1.7,0.4-3.4,1.1-4.9,2.1l-3.1-2.6c-0.3-0.3-0.7-0.2-1,0l-4.4,4.4c-0.3,0.3-0.3,0.7,0,1l2.6,3.1 c-0.9,1.5-1.6,3.2-2.1,4.9l-4,0.4c-0.4,0-0.7,0.4-0.7,0.8v6.2c0,0.4,0.3,0.7,0.7,0.8l4.1,0.4c0.4,1.7,1.1,3.4,2.1,4.9l-2.6,3.1 c-0.2,0.3-0.2,0.7,0,1l4.4,4.4C27.9,75,28.3,75.1,28.6,74.8z M27.3,66.8c0.2-0.3,0.2-0.6,0-0.9c-1.1-1.6-1.9-3.5-2.3-5.4 c-0.1-0.3-0.3-0.6-0.6-0.6l-3.9-0.4v-4.9l3.9-0.4c0.3,0,0.6-0.3,0.7-0.6c0.4-1.9,1.2-3.8,2.3-5.4c0.2-0.3,0.2-0.6-0.1-0.9l-2.5-3 l3.4-3.4l3,2.5c0.3,0.2,0.6,0.2,0.9,0c1.6-1.1,3.5-1.9,5.4-2.3c0.3-0.1,0.6-0.3,0.6-0.6l0.4-3.9h4.9l0.4,3.9c0,0.3,0.3,0.6,0.6,0.7 c1.9,0.4,3.8,1.2,5.4,2.3c0.3,0.2,0.6,0.2,0.9-0.1l3-2.5l3.4,3.4l-2.5,3c-0.2,0.3-0.2,0.6,0,0.9c1.1,1.6,1.9,3.5,2.3,5.4 c0.1,0.3,0.3,0.6,0.7,0.6l3.9,0.4v4.9l-3.9,0.4c-0.3,0-0.6,0.3-0.7,0.6c-0.4,1.9-1.2,3.8-2.3,5.4c-0.2,0.3-0.2,0.6,0.1,0.9l2.5,3 l-3.4,3.4l-3-2.5c-0.3-0.2-0.6-0.2-0.9,0c-1.6,1.1-3.5,1.9-5.4,2.3c-0.3,0.1-0.6,0.3-0.6,0.6l-0.4,3.9h-4.9l-0.4-3.9 c0-0.3-0.3-0.6-0.6-0.7c-1.9-0.4-3.8-1.2-5.4-2.3c-0.3-0.2-0.6-0.2-0.9,0.1l-3,2.5l-3.4-3.4L27.3,66.8z"></path> <path id="Path_201" fill="#0089CE" d="M41,69.9c7.1,0,12.9-5.8,12.9-12.9c0-7.1-5.8-12.9-12.9-12.9c-7.1,0-12.9,5.8-12.9,12.9 S33.8,69.9,41,69.9C41,69.9,41,69.9,41,69.9z M41,45.7c6.3,0,11.4,5.1,11.4,11.4c0,6.3-5.1,11.4-11.4,11.4S29.6,63.3,29.6,57 C29.6,50.8,34.7,45.7,41,45.7L41,45.7z"></path> <path id="Path_202" fill="#0089CE" d="M40.9,62.5L40.9,62.5c-1.4,0-2.4-1.1-2.4-2.4c0-0.4-0.3-0.8-0.8-0.8l0,0 c-0.4,0-0.8,0.3-0.8,0.8c0,1.9,1.3,3.5,3.1,3.8v1.2c0,0.4,0.3,0.8,0.8,0.8c0.4,0,0.8-0.3,0.8-0.8V64c1.8-0.4,3.2-2,3.2-3.9 c0-2.2-1.8-3.9-3.9-3.9c-1.3,0-2.4-1.1-2.4-2.4c0-1.3,1.1-2.4,2.4-2.4c1.3,0,2.4,1.1,2.4,2.4c0,0.4,0.3,0.8,0.8,0.8l0,0 c0.4,0,0.7-0.3,0.7-0.7c0,0,0,0,0,0c0-1.9-1.3-3.5-3.2-3.9v-1.1c0-0.4-0.3-0.8-0.8-0.8c-0.4,0-0.8,0.3-0.8,0.8V50 c-2.1,0.4-3.5,2.5-3.1,4.6c0.4,1.8,2,3.2,3.9,3.2c1.3,0,2.4,1.1,2.4,2.4C43.3,61.5,42.3,62.5,40.9,62.5L40.9,62.5z"></path> <path id="Path_203" fill="#343A40" d="M55.9,33.3l1.9,0.2c0.2,0.8,0.5,1.5,0.9,2.2l-1.2,1.5c-0.3,0.3-0.2,0.7,0,1l2.3,2.3 c0.3,0.3,0.7,0.3,1,0l1.5-1.2c0.7,0.4,1.4,0.7,2.2,0.9l0.2,1.9c0,0.4,0.4,0.7,0.8,0.7h3.3c0.4,0,0.7-0.3,0.8-0.7l0.2-1.9 c0.8-0.2,1.5-0.5,2.2-0.9l1.5,1.2c0.3,0.2,0.7,0.2,1,0l2.3-2.3c0.3-0.3,0.3-0.7,0-1l-1.2-1.5c0.4-0.7,0.7-1.4,0.9-2.2l1.8-0.2 c0.4,0,0.7-0.4,0.7-0.8v-3.3c0-0.4-0.3-0.7-0.7-0.8l-1.9-0.2c-0.2-0.8-0.5-1.5-0.9-2.2l1.2-1.5c0.2-0.3,0.2-0.7,0-1l-2.3-2.3 c-0.3-0.3-0.7-0.3-1-0.1l-1.5,1.2c-0.7-0.4-1.4-0.7-2.2-0.9l-0.2-1.9c0-0.4-0.4-0.7-0.8-0.7h-3.3c-0.4,0-0.7,0.3-0.8,0.7l-0.2,1.9 c-0.8,0.2-1.5,0.5-2.2,0.9l-1.5-1.2c-0.3-0.3-0.7-0.2-1,0l-2.3,2.3c-0.3,0.3-0.3,0.7,0,1l1.2,1.5c-0.4,0.7-0.7,1.4-0.9,2.2 l-1.9,0.2c-0.4,0-0.7,0.4-0.7,0.8v3.3C55.2,32.9,55.5,33.3,55.9,33.3z M56.7,29.9l1.7-0.2c0.3,0,0.6-0.3,0.7-0.6 c0.2-1,0.6-1.9,1.2-2.7c0.2-0.3,0.2-0.6-0.1-0.9l-1.1-1.3l1.3-1.3l1.3,1.1c0.3,0.2,0.6,0.2,0.9,0c0.8-0.5,1.8-0.9,2.7-1.2 c0.3-0.1,0.6-0.3,0.6-0.6l0.2-1.7h1.9l0.2,1.7c0,0.3,0.3,0.6,0.6,0.7c1,0.2,1.9,0.6,2.7,1.1c0.3,0.2,0.6,0.2,0.9-0.1l1.3-1.1 l1.3,1.3L74,25.5c-0.2,0.3-0.2,0.6,0,0.9c0.5,0.8,0.9,1.8,1.2,2.7c0.1,0.3,0.3,0.6,0.6,0.6l1.7,0.2v1.9L75.8,32 c-0.3,0-0.6,0.3-0.7,0.6c-0.2,1-0.6,1.9-1.1,2.7c-0.2,0.3-0.2,0.6,0.1,0.9l1.1,1.3l-1.3,1.3l-1.3-1.1c-0.3-0.2-0.6-0.2-0.9,0 c-0.8,0.5-1.8,0.9-2.7,1.2c-0.3,0.1-0.6,0.4-0.6,0.7l-0.2,1.8h-1.9L66,39.6c0-0.3-0.3-0.6-0.6-0.7c-1-0.2-1.9-0.6-2.7-1.2 c-0.3-0.2-0.6-0.2-0.9,0.1L60.4,39l-1.3-1.3l1.1-1.3c0.2-0.3,0.2-0.6,0-0.9c-0.5-0.8-0.9-1.8-1.2-2.7c-0.1-0.3-0.3-0.6-0.6-0.6 l-1.7-0.2L56.7,29.9z"></path> <path id="Path_204" fill="#343A40" d="M67.1,36.4c3,0,5.5-2.5,5.5-5.5s-2.5-5.5-5.5-5.5c-3,0-5.5,2.5-5.5,5.5l0,0 C61.6,33.9,64.1,36.4,67.1,36.4z M67.1,26.9c2.2,0,4,1.8,4,4s-1.8,4-4,4s-4-1.8-4-4C63.1,28.7,64.9,26.9,67.1,26.9L67.1,26.9z"></path> </g> </svg> 